<?xml version="1.0" encoding="UTF-8" standalone="no"?>
<svg
   xmlns:dc="http://purl.org/dc/elements/1.1/"
   xmlns:cc="http://creativecommons.org/ns#"
   xmlns:rdf="http://www.w3.org/1999/02/22-rdf-syntax-ns#"
   xmlns:svg="http://www.w3.org/2000/svg"
   xmlns="http://www.w3.org/2000/svg"
   version="1.1"
   id="svg5007"
   viewBox="0 0 173.77932 61.578913"
   height="17.378939mm"
   width="49.044388mm">
  <defs
     id="defs5009">
    <marker
       style="overflow:visible"
       id="marker4552"
       refX="0"
       refY="0"
       orient="auto">
      <path
         transform="scale(0.4,0.4)"
         style="fill:#a7a7a7;fill-opacity:1;fill-rule:evenodd;stroke:#a7a7a7;stroke-width:1pt;stroke-opacity:1"
         d="m 5.77,0 -8.65,5 0,-10 8.65,5 z"
         id="path4441" />
    </marker>
    <marker
       style="overflow:visible"
       id="marker4872"
       refX="0"
       refY="0"
       orient="auto">
      <path
         transform="scale(0.4,0.4)"
         style="fill:#a7a7a7;fill-opacity:1;fill-rule:evenodd;stroke:#a7a7a7;stroke-width:1pt;stroke-opacity:1"
         d="m 5.77,0 -8.65,5 0,-10 8.65,5 z"
         id="path4874" />
    </marker>
    <marker
       style="overflow:visible"
       id="marker4866"
       refX="0"
       refY="0"
       orient="auto">
      <path
         transform="scale(0.4,0.4)"
         style="fill:#a7a7a7;fill-opacity:1;fill-rule:evenodd;stroke:#a7a7a7;stroke-width:1pt;stroke-opacity:1"
         d="m 5.77,0 -8.65,5 0,-10 8.65,5 z"
         id="path4868" />
    </marker>
    <marker
       style="overflow:visible"
       id="marker4860"
       refX="0"
       refY="0"
       orient="auto">
      <path
         transform="scale(0.4,0.4)"
         style="fill:#a7a7a7;fill-opacity:1;fill-rule:evenodd;stroke:#a7a7a7;stroke-width:1pt;stroke-opacity:1"
         d="m 5.77,0 -8.65,5 0,-10 8.65,5 z"
         id="path4862" />
    </marker>
    <marker
       style="overflow:visible"
       id="marker4854"
       refX="0"
       refY="0"
       orient="auto">
      <path
         transform="scale(0.4,0.4)"
         style="fill:#a7a7a7;fill-opacity:1;fill-rule:evenodd;stroke:#a7a7a7;stroke-width:1pt;stroke-opacity:1"
         d="m 5.77,0 -8.65,5 0,-10 8.65,5 z"
         id="path4856" />
    </marker>
    <marker
       style="overflow:visible"
       id="marker4811"
       refX="0"
       refY="0"
       orient="auto">
      <path
         transform="scale(0.4,0.4)"
         style="fill:#a7a7a7;fill-opacity:1;fill-rule:evenodd;stroke:#a7a7a7;stroke-width:1pt;stroke-opacity:1"
         d="m 5.77,0 -8.65,5 0,-10 8.65,5 z"
         id="path4700" />
    </marker>
    <marker
       style="overflow:visible"
       id="marker9483"
       refX="0"
       refY="0"
       orient="auto">
      <path
         transform="scale(0.4,0.4)"
         style="fill:#a7a7a7;fill-opacity:1;fill-rule:evenodd;stroke:#a7a7a7;stroke-width:1pt;stroke-opacity:1"
         d="m 5.77,0 -8.65,5 0,-10 8.65,5 z"
         id="path9485" />
    </marker>
    <marker
       style="overflow:visible"
       id="marker9477"
       refX="0"
       refY="0"
       orient="auto">
      <path
         transform="scale(0.4,0.4)"
         style="fill:#a7a7a7;fill-opacity:1;fill-rule:evenodd;stroke:#a7a7a7;stroke-width:1pt;stroke-opacity:1"
         d="m 5.77,0 -8.65,5 0,-10 8.65,5 z"
         id="path9479" />
    </marker>
    <marker
       style="overflow:visible"
       id="marker9471"
       refX="0"
       refY="0"
       orient="auto">
      <path
         transform="scale(0.4,0.4)"
         style="fill:#a7a7a7;fill-opacity:1;fill-rule:evenodd;stroke:#a7a7a7;stroke-width:1pt;stroke-opacity:1"
         d="m 5.77,0 -8.65,5 0,-10 8.65,5 z"
         id="path9473" />
    </marker>
    <marker
       style="overflow:visible"
       id="marker9406"
       refX="0"
       refY="0"
       orient="auto">
      <path
         transform="scale(0.4,0.4)"
         style="fill:#a7a7a7;fill-opacity:1;fill-rule:evenodd;stroke:#a7a7a7;stroke-width:1pt;stroke-opacity:1"
         d="m 5.77,0 -8.65,5 0,-10 8.65,5 z"
         id="path9408" />
    </marker>
    <marker
       style="overflow:visible"
       id="marker9400"
       refX="0"
       refY="0"
       orient="auto">
      <path
         transform="scale(0.4,0.4)"
         style="fill:#a7a7a7;fill-opacity:1;fill-rule:evenodd;stroke:#a7a7a7;stroke-width:1pt;stroke-opacity:1"
         d="m 5.77,0 -8.65,5 0,-10 8.65,5 z"
         id="path9402" />
    </marker>
    <marker
       style="overflow:visible"
       id="marker9394"
       refX="0"
       refY="0"
       orient="auto">
      <path
         transform="scale(0.4,0.4)"
         style="fill:#a7a7a7;fill-opacity:1;fill-rule:evenodd;stroke:#a7a7a7;stroke-width:1pt;stroke-opacity:1"
         d="m 5.77,0 -8.65,5 0,-10 8.65,5 z"
         id="path9396" />
    </marker>
    <marker
       style="overflow:visible"
       id="marker9388"
       refX="0"
       refY="0"
       orient="auto">
      <path
         transform="scale(0.4,0.4)"
         style="fill:#a7a7a7;fill-opacity:1;fill-rule:evenodd;stroke:#a7a7a7;stroke-width:1pt;stroke-opacity:1"
         d="m 5.77,0 -8.65,5 0,-10 8.65,5 z"
         id="path9390" />
    </marker>
    <marker
       style="overflow:visible"
       id="marker9382"
       refX="0"
       refY="0"
       orient="auto">
      <path
         transform="scale(0.4,0.4)"
         style="fill:#a7a7a7;fill-opacity:1;fill-rule:evenodd;stroke:#a7a7a7;stroke-width:1pt;stroke-opacity:1"
         d="m 5.77,0 -8.65,5 0,-10 8.65,5 z"
         id="path9384" />
    </marker>
    <marker
       style="overflow:visible"
       id="marker9338"
       refX="0"
       refY="0"
       orient="auto">
      <path
         transform="scale(0.4,0.4)"
         style="fill:#a7a7a7;fill-opacity:1;fill-rule:evenodd;stroke:#a7a7a7;stroke-width:1pt;stroke-opacity:1"
         d="m 5.77,0 -8.65,5 0,-10 8.65,5 z"
         id="path9340" />
    </marker>
    <marker
       style="overflow:visible"
       id="marker9332"
       refX="0"
       refY="0"
       orient="auto">
      <path
         transform="scale(0.4,0.4)"
         style="fill:#a7a7a7;fill-opacity:1;fill-rule:evenodd;stroke:#a7a7a7;stroke-width:1pt;stroke-opacity:1"
         d="m 5.77,0 -8.65,5 0,-10 8.65,5 z"
         id="path9334" />
    </marker>
    <marker
       style="overflow:visible"
       id="marker9326"
       refX="0"
       refY="0"
       orient="auto">
      <path
         transform="scale(0.4,0.4)"
         style="fill:#a7a7a7;fill-opacity:1;fill-rule:evenodd;stroke:#a7a7a7;stroke-width:1pt;stroke-opacity:1"
         d="m 5.77,0 -8.65,5 0,-10 8.65,5 z"
         id="path9328" />
    </marker>
    <marker
       style="overflow:visible"
       id="marker9069"
       refX="0"
       refY="0"
       orient="auto">
      <path
         transform="scale(0.4,0.4)"
         style="fill:#a7a7a7;fill-opacity:1;fill-rule:evenodd;stroke:#a7a7a7;stroke-width:1pt;stroke-opacity:1"
         d="m 5.77,0 -8.65,5 0,-10 8.65,5 z"
         id="path9071" />
    </marker>
    <marker
       style="overflow:visible"
       id="marker9063"
       refX="0"
       refY="0"
       orient="auto">
      <path
         transform="scale(0.4,0.4)"
         style="fill:#a7a7a7;fill-opacity:1;fill-rule:evenodd;stroke:#a7a7a7;stroke-width:1pt;stroke-opacity:1"
         d="m 5.77,0 -8.65,5 0,-10 8.65,5 z"
         id="path9065" />
    </marker>
    <marker
       style="overflow:visible"
       id="marker9046"
       refX="0"
       refY="0"
       orient="auto">
      <path
         transform="scale(0.4,0.4)"
         style="fill:#a7a7a7;fill-opacity:1;fill-rule:evenodd;stroke:#a7a7a7;stroke-width:1pt;stroke-opacity:1"
         d="m 5.77,0 -8.65,5 0,-10 8.65,5 z"
         id="path9048" />
    </marker>
    <marker
       style="overflow:visible"
       id="marker9040"
       refX="0"
       refY="0"
       orient="auto">
      <path
         transform="scale(0.4,0.4)"
         style="fill:#a7a7a7;fill-opacity:1;fill-rule:evenodd;stroke:#a7a7a7;stroke-width:1pt;stroke-opacity:1"
         d="m 5.77,0 -8.65,5 0,-10 8.65,5 z"
         id="path9042" />
    </marker>
    <marker
       style="overflow:visible"
       id="marker9034"
       refX="0"
       refY="0"
       orient="auto">
      <path
         transform="scale(0.4,0.4)"
         style="fill:#a7a7a7;fill-opacity:1;fill-rule:evenodd;stroke:#a7a7a7;stroke-width:1pt;stroke-opacity:1"
         d="m 5.77,0 -8.65,5 0,-10 8.65,5 z"
         id="path9036" />
    </marker>
    <marker
       style="overflow:visible"
       id="marker9028"
       refX="0"
       refY="0"
       orient="auto">
      <path
         transform="scale(0.4,0.4)"
         style="fill:#a7a7a7;fill-opacity:1;fill-rule:evenodd;stroke:#a7a7a7;stroke-width:1pt;stroke-opacity:1"
         d="m 5.77,0 -8.65,5 0,-10 8.65,5 z"
         id="path9030" />
    </marker>
    <marker
       orient="auto"
       refY="0"
       refX="0"
       id="marker9020"
       style="overflow:visible">
      <path
         id="path9022"
         d="m 5.77,0 -8.65,5 0,-10 8.65,5 z"
         style="fill:#a7a7a7;fill-opacity:1;fill-rule:evenodd;stroke:#a7a7a7;stroke-width:1pt;stroke-opacity:1"
         transform="scale(0.4,0.4)" />
    </marker>
    <marker
       orient="auto"
       refY="0"
       refX="0"
       id="marker9016"
       style="overflow:visible">
      <path
         id="path9018"
         d="m 5.77,0 -8.65,5 0,-10 8.65,5 z"
         style="fill:#a7a7a7;fill-opacity:1;fill-rule:evenodd;stroke:#a7a7a7;stroke-width:1pt;stroke-opacity:1"
         transform="scale(0.4,0.4)" />
    </marker>
    <marker
       style="overflow:visible"
       id="marker9012"
       refX="0"
       refY="0"
       orient="auto">
      <path
         transform="scale(0.4,0.4)"
         style="fill:#a7a7a7;fill-opacity:1;fill-rule:evenodd;stroke:#a7a7a7;stroke-width:1pt;stroke-opacity:1"
         d="m 5.77,0 -8.65,5 0,-10 8.65,5 z"
         id="path9014" />
    </marker>
    <marker
       style="overflow:visible"
       id="marker8879"
       refX="0"
       refY="0"
       orient="auto">
      <path
         transform="scale(0.4,0.4)"
         style="fill:#a7a7a7;fill-opacity:1;fill-rule:evenodd;stroke:#a7a7a7;stroke-width:1pt;stroke-opacity:1"
         d="m 5.77,0 -8.65,5 0,-10 8.65,5 z"
         id="path8881" />
    </marker>
    <marker
       orient="auto"
       refY="0"
       refX="0"
       id="marker4550"
       style="overflow:visible">
      <path
         id="path4552"
         d="m 5.77,0 -8.65,5 0,-10 8.65,5 z"
         style="fill:#a7a7a7;fill-opacity:1;fill-rule:evenodd;stroke:#a7a7a7;stroke-width:1pt;stroke-opacity:1"
         transform="scale(0.4,0.4)" />
    </marker>
    <marker
       orient="auto"
       refY="0"
       refX="0"
       id="marker4546"
       style="overflow:visible">
      <path
         id="path4548"
         d="m 5.77,0 -8.65,5 0,-10 8.65,5 z"
         style="fill:#d35f5f;fill-opacity:0.94117647;fill-rule:evenodd;stroke:none;stroke-width:1pt;stroke-opacity:0.85490196"
         transform="scale(0.4,0.4)" />
    </marker>
    <marker
       orient="auto"
       refY="0"
       refX="0"
       id="marker4542"
       style="overflow:visible">
      <path
         id="path4544"
         d="m 5.77,0 -8.65,5 0,-10 8.65,5 z"
         style="fill:#a7a7a7;fill-opacity:1;fill-rule:evenodd;stroke:#a7a7a7;stroke-width:1pt;stroke-opacity:1"
         transform="scale(0.4,0.4)" />
    </marker>
    <marker
       orient="auto"
       refY="0"
       refX="0"
       id="marker4538"
       style="overflow:visible">
      <path
         id="path4540"
         d="m 5.77,0 -8.65,5 0,-10 8.65,5 z"
         style="fill:#a7a7a7;fill-opacity:1;fill-rule:evenodd;stroke:#a7a7a7;stroke-width:1pt;stroke-opacity:1"
         transform="scale(0.4,0.4)" />
    </marker>
    <marker
       orient="auto"
       refY="0"
       refX="0"
       id="marker4534"
       style="overflow:visible">
      <path
         id="path4536"
         d="m 5.77,0 -8.65,5 0,-10 8.65,5 z"
         style="fill:#a7a7a7;fill-opacity:1;fill-rule:evenodd;stroke:#a7a7a7;stroke-width:1pt;stroke-opacity:1"
         transform="scale(0.4,0.4)" />
    </marker>
    <marker
       orient="auto"
       refY="0"
       refX="0"
       id="marker4530"
       style="overflow:visible">
      <path
         id="path4532"
         d="m 5.77,0 -8.65,5 0,-10 8.65,5 z"
         style="fill:#a7a7a7;fill-opacity:1;fill-rule:evenodd;stroke:#a7a7a7;stroke-width:1pt;stroke-opacity:1"
         transform="scale(0.4,0.4)" />
    </marker>
    <marker
       orient="auto"
       refY="0"
       refX="0"
       id="marker4526"
       style="overflow:visible">
      <path
         id="path4528"
         d="m 5.77,0 -8.65,5 0,-10 8.65,5 z"
         style="fill:#a7a7a7;fill-opacity:1;fill-rule:evenodd;stroke:#a7a7a7;stroke-width:1pt;stroke-opacity:1"
         transform="scale(0.4,0.4)" />
    </marker>
    <marker
       orient="auto"
       refY="0"
       refX="0"
       id="marker4522"
       style="overflow:visible">
      <path
         id="path4524"
         d="m 5.77,0 -8.65,5 0,-10 8.65,5 z"
         style="fill:#a7a7a7;fill-opacity:1;fill-rule:evenodd;stroke:#a7a7a7;stroke-width:1pt;stroke-opacity:1"
         transform="scale(0.4,0.4)" />
    </marker>
    <marker
       orient="auto"
       refY="0"
       refX="0"
       id="marker4518"
       style="overflow:visible">
      <path
         id="path4520"
         d="m 5.77,0 -8.65,5 0,-10 8.65,5 z"
         style="fill:#a7a7a7;fill-opacity:1;fill-rule:evenodd;stroke:#a7a7a7;stroke-width:1pt;stroke-opacity:1"
         transform="scale(0.4,0.4)" />
    </marker>
    <marker
       orient="auto"
       refY="0"
       refX="0"
       id="marker4514"
       style="overflow:visible">
      <path
         id="path4516"
         d="m 5.77,0 -8.65,5 0,-10 8.65,5 z"
         style="fill:#a7a7a7;fill-opacity:1;fill-rule:evenodd;stroke:#a7a7a7;stroke-width:1pt;stroke-opacity:1"
         transform="scale(0.4,0.4)" />
    </marker>
    <marker
       orient="auto"
       refY="0"
       refX="0"
       id="marker4510"
       style="overflow:visible">
      <path
         id="path4512"
         d="m 5.77,0 -8.65,5 0,-10 8.65,5 z"
         style="fill:#a7a7a7;fill-opacity:1;fill-rule:evenodd;stroke:#a7a7a7;stroke-width:1pt;stroke-opacity:1"
         transform="scale(0.4,0.4)" />
    </marker>
    <marker
       orient="auto"
       refY="0"
       refX="0"
       id="marker4506"
       style="overflow:visible">
      <path
         id="path4508"
         d="m 5.77,0 -8.65,5 0,-10 8.65,5 z"
         style="fill:#a7a7a7;fill-opacity:1;fill-rule:evenodd;stroke:#a7a7a7;stroke-width:1pt;stroke-opacity:1"
         transform="scale(0.4,0.4)" />
    </marker>
    <marker
       orient="auto"
       refY="0"
       refX="0"
       id="marker4502"
       style="overflow:visible">
      <path
         id="path4504"
         d="m 5.77,0 -8.65,5 0,-10 8.65,5 z"
         style="fill:#a7a7a7;fill-opacity:1;fill-rule:evenodd;stroke:#a7a7a7;stroke-width:1pt;stroke-opacity:1"
         transform="scale(0.4,0.4)" />
    </marker>
    <marker
       orient="auto"
       refY="0"
       refX="0"
       id="marker4498"
       style="overflow:visible">
      <path
         id="path4500"
         d="m 5.77,0 -8.65,5 0,-10 8.65,5 z"
         style="fill:#a7a7a7;fill-opacity:1;fill-rule:evenodd;stroke:#a7a7a7;stroke-width:1pt;stroke-opacity:1"
         transform="scale(0.4,0.4)" />
    </marker>
    <marker
       orient="auto"
       refY="0"
       refX="0"
       id="marker4494"
       style="overflow:visible">
      <path
         id="path4496"
         d="m 5.77,0 -8.65,5 0,-10 8.65,5 z"
         style="fill:#a7a7a7;fill-opacity:1;fill-rule:evenodd;stroke:#a7a7a7;stroke-width:1pt;stroke-opacity:1"
         transform="scale(0.4,0.4)" />
    </marker>
    <marker
       orient="auto"
       refY="0"
       refX="0"
       id="marker4490"
       style="overflow:visible">
      <path
         id="path4492"
         d="m 5.77,0 -8.65,5 0,-10 8.65,5 z"
         style="fill:#a7a7a7;fill-opacity:1;fill-rule:evenodd;stroke:#a7a7a7;stroke-width:1pt;stroke-opacity:1"
         transform="scale(0.4,0.4)" />
    </marker>
    <marker
       style="overflow:visible"
       id="marker4482"
       refX="0"
       refY="0"
       orient="auto">
      <path
         transform="scale(0.4,0.4)"
         style="fill:#a7a7a7;fill-opacity:1;fill-rule:evenodd;stroke:#a7a7a7;stroke-width:1pt;stroke-opacity:1"
         d="m 5.77,0 -8.65,5 0,-10 8.65,5 z"
         id="path4484" />
    </marker>
    <marker
       style="overflow:visible"
       id="marker4458"
       refX="0"
       refY="0"
       orient="auto">
      <path
         transform="scale(0.4,0.4)"
         style="fill:#a7a7a7;fill-opacity:1;fill-rule:evenodd;stroke:#a7a7a7;stroke-width:1pt;stroke-opacity:1"
         d="m 5.77,0 -8.65,5 0,-10 8.65,5 z"
         id="path4460" />
    </marker>
    <marker
       style="overflow:visible"
       id="marker4453"
       refX="0"
       refY="0"
       orient="auto">
      <path
         transform="scale(0.4,0.4)"
         style="fill:#a7a7a7;fill-opacity:1;fill-rule:evenodd;stroke:#a7a7a7;stroke-width:1pt;stroke-opacity:1"
         d="m 5.77,0 -8.65,5 0,-10 8.65,5 z"
         id="path4342" />
    </marker>
    <marker
       style="overflow:visible"
       id="marker21270"
       refX="0"
       refY="0"
       orient="auto">
      <path
         transform="scale(0.4,0.4)"
         style="fill:#a7a7a7;fill-opacity:1;fill-rule:evenodd;stroke:#a7a7a7;stroke-width:1pt;stroke-opacity:1"
         d="m 5.77,0 -8.65,5 0,-10 8.65,5 z"
         id="path21159" />
    </marker>
    <marker
       orient="auto"
       refY="0"
       refX="0"
       id="marker7525"
       style="overflow:visible">
      <path
         id="path7527"
         d="m 5.77,0 -8.65,5 0,-10 8.65,5 z"
         style="fill:#a7a7a7;fill-opacity:1;fill-rule:evenodd;stroke:#a7a7a7;stroke-width:1pt;stroke-opacity:1"
         transform="scale(0.4,0.4)" />
    </marker>
    <marker
       orient="auto"
       refY="0"
       refX="0"
       id="marker7395"
       style="overflow:visible">
      <path
         id="path7397"
         d="m 5.77,0 -8.65,5 0,-10 8.65,5 z"
         style="fill:#999999;fill-opacity:0.94117647;fill-rule:evenodd;stroke:none;stroke-width:1pt;stroke-opacity:0.85490196"
         transform="scale(0.4,0.4)" />
    </marker>
    <marker
       orient="auto"
       refY="0"
       refX="0"
       id="marker7271"
       style="overflow:visible">
      <path
         id="path7273"
         d="m 5.77,0 -8.65,5 0,-10 8.65,5 z"
         style="fill:#a7a7a7;fill-opacity:1;fill-rule:evenodd;stroke:#a7a7a7;stroke-width:1pt;stroke-opacity:1"
         transform="scale(0.4,0.4)" />
    </marker>
    <marker
       orient="auto"
       refY="0"
       refX="0"
       id="marker7153"
       style="overflow:visible">
      <path
         id="path7155"
         d="m 5.77,0 -8.65,5 0,-10 8.65,5 z"
         style="fill:#a7a7a7;fill-opacity:1;fill-rule:evenodd;stroke:#a7a7a7;stroke-width:1pt;stroke-opacity:1"
         transform="scale(0.4,0.4)" />
    </marker>
    <marker
       orient="auto"
       refY="0"
       refX="0"
       id="marker7041"
       style="overflow:visible">
      <path
         id="path7043"
         d="m 5.77,0 -8.65,5 0,-10 8.65,5 z"
         style="fill:#a7a7a7;fill-opacity:1;fill-rule:evenodd;stroke:#a7a7a7;stroke-width:1pt;stroke-opacity:1"
         transform="scale(0.4,0.4)" />
    </marker>
    <marker
       orient="auto"
       refY="0"
       refX="0"
       id="marker6935"
       style="overflow:visible">
      <path
         id="path6937"
         d="m 5.77,0 -8.65,5 0,-10 8.65,5 z"
         style="fill:#a7a7a7;fill-opacity:1;fill-rule:evenodd;stroke:#a7a7a7;stroke-width:1pt;stroke-opacity:1"
         transform="scale(0.4,0.4)" />
    </marker>
    <marker
       orient="auto"
       refY="0"
       refX="0"
       id="marker6835"
       style="overflow:visible">
      <path
         id="path6837"
         d="m 5.77,0 -8.65,5 0,-10 8.65,5 z"
         style="fill:#a7a7a7;fill-opacity:1;fill-rule:evenodd;stroke:#a7a7a7;stroke-width:1pt;stroke-opacity:1"
         transform="scale(0.4,0.4)" />
    </marker>
    <marker
       orient="auto"
       refY="0"
       refX="0"
       id="marker6741"
       style="overflow:visible">
      <path
         id="path6743"
         d="m 5.77,0 -8.65,5 0,-10 8.65,5 z"
         style="fill:#a7a7a7;fill-opacity:1;fill-rule:evenodd;stroke:#a7a7a7;stroke-width:1pt;stroke-opacity:1"
         transform="scale(0.4,0.4)" />
    </marker>
    <marker
       orient="auto"
       refY="0"
       refX="0"
       id="marker6653"
       style="overflow:visible">
      <path
         id="path6655"
         d="m 5.77,0 -8.65,5 0,-10 8.65,5 z"
         style="fill:#a7a7a7;fill-opacity:1;fill-rule:evenodd;stroke:#a7a7a7;stroke-width:1pt;stroke-opacity:1"
         transform="scale(0.4,0.4)" />
    </marker>
    <marker
       orient="auto"
       refY="0"
       refX="0"
       id="marker6571"
       style="overflow:visible">
      <path
         id="path6573"
         d="m 5.77,0 -8.65,5 0,-10 8.65,5 z"
         style="fill:#a7a7a7;fill-opacity:1;fill-rule:evenodd;stroke:#a7a7a7;stroke-width:1pt;stroke-opacity:1"
         transform="scale(0.4,0.4)" />
    </marker>
    <marker
       orient="auto"
       refY="0"
       refX="0"
       id="marker6495"
       style="overflow:visible">
      <path
         id="path6497"
         d="m 5.77,0 -8.65,5 0,-10 8.65,5 z"
         style="fill:#a7a7a7;fill-opacity:1;fill-rule:evenodd;stroke:#a7a7a7;stroke-width:1pt;stroke-opacity:1"
         transform="scale(0.4,0.4)" />
    </marker>
    <marker
       orient="auto"
       refY="0"
       refX="0"
       id="marker6425"
       style="overflow:visible">
      <path
         id="path6427"
         d="m 5.77,0 -8.65,5 0,-10 8.65,5 z"
         style="fill:#a7a7a7;fill-opacity:1;fill-rule:evenodd;stroke:#a7a7a7;stroke-width:1pt;stroke-opacity:1"
         transform="scale(0.4,0.4)" />
    </marker>
    <marker
       orient="auto"
       refY="0"
       refX="0"
       id="marker6361"
       style="overflow:visible">
      <path
         id="path6363"
         d="m 5.77,0 -8.65,5 0,-10 8.65,5 z"
         style="fill:#a7a7a7;fill-opacity:1;fill-rule:evenodd;stroke:#a7a7a7;stroke-width:1pt;stroke-opacity:1"
         transform="scale(0.4,0.4)" />
    </marker>
    <marker
       orient="auto"
       refY="0"
       refX="0"
       id="marker6303"
       style="overflow:visible">
      <path
         id="path6305"
         d="m 5.77,0 -8.65,5 0,-10 8.65,5 z"
         style="fill:#a7a7a7;fill-opacity:1;fill-rule:evenodd;stroke:#a7a7a7;stroke-width:1pt;stroke-opacity:1"
         transform="scale(0.4,0.4)" />
    </marker>
    <marker
       orient="auto"
       refY="0"
       refX="0"
       id="marker6251"
       style="overflow:visible">
      <path
         id="path6253"
         d="m 5.77,0 -8.65,5 0,-10 8.65,5 z"
         style="fill:#a7a7a7;fill-opacity:1;fill-rule:evenodd;stroke:#a7a7a7;stroke-width:1pt;stroke-opacity:1"
         transform="scale(0.4,0.4)" />
    </marker>
    <marker
       orient="auto"
       refY="0"
       refX="0"
       id="marker6205"
       style="overflow:visible">
      <path
         id="path6207"
         d="m 5.77,0 -8.65,5 0,-10 8.65,5 z"
         style="fill:#a7a7a7;fill-opacity:1;fill-rule:evenodd;stroke:#a7a7a7;stroke-width:1pt;stroke-opacity:1"
         transform="scale(0.4,0.4)" />
    </marker>
    <marker
       style="overflow:visible"
       id="marker5252"
       refX="0"
       refY="0"
       orient="auto">
      <path
         transform="scale(0.4,0.4)"
         style="fill:#a7a7a7;fill-opacity:1;fill-rule:evenodd;stroke:#a7a7a7;stroke-width:1pt;stroke-opacity:1"
         d="m 5.77,0 -8.65,5 0,-10 8.65,5 z"
         id="path5254" />
    </marker>
    <marker
       style="overflow:visible"
       id="marker5076"
       refX="0"
       refY="0"
       orient="auto">
      <path
         transform="scale(0.4,0.4)"
         style="fill:#a7a7a7;fill-opacity:1;fill-rule:evenodd;stroke:#a7a7a7;stroke-width:1pt;stroke-opacity:1"
         d="m 5.77,0 -8.65,5 0,-10 8.65,5 z"
         id="path5078" />
    </marker>
    <marker
       style="overflow:visible"
       id="marker5022"
       refX="0"
       refY="0"
       orient="auto">
      <path
         transform="scale(0.4,0.4)"
         style="fill:#a7a7a7;fill-opacity:1;fill-rule:evenodd;stroke:#a7a7a7;stroke-width:1pt;stroke-opacity:1"
         d="m 5.77,0 -8.65,5 0,-10 8.65,5 z"
         id="path5024" />
    </marker>
    <marker
       style="overflow:visible"
       id="TriangleOutM"
       refX="0"
       refY="0"
       orient="auto">
      <path
         transform="scale(0.4,0.4)"
         style="fill:#a7a7a7;fill-opacity:1;fill-rule:evenodd;stroke:#a7a7a7;stroke-width:1pt;stroke-opacity:1"
         d="m 5.77,0 -8.65,5 0,-10 8.65,5 z"
         id="path4315" />
    </marker>
    <marker
       style="overflow:visible"
       id="marker8879-0"
       refX="0"
       refY="0"
       orient="auto">
      <path
         transform="scale(0.4,0.4)"
         style="fill:#a7a7a7;fill-opacity:1;fill-rule:evenodd;stroke:#a7a7a7;stroke-width:1pt;stroke-opacity:1"
         d="m 5.77,0 -8.65,5 0,-10 8.65,5 z"
         id="path8881-1" />
    </marker>
    <marker
       orient="auto"
       refY="0"
       refX="0"
       id="marker4534-6"
       style="overflow:visible">
      <path
         id="path4536-7"
         d="m 5.77,0 -8.65,5 0,-10 8.65,5 z"
         style="fill:#a7a7a7;fill-opacity:1;fill-rule:evenodd;stroke:#a7a7a7;stroke-width:1pt;stroke-opacity:1"
         transform="scale(0.4,0.4)" />
    </marker>
    <marker
       orient="auto"
       refY="0"
       refX="0"
       id="marker4538-7"
       style="overflow:visible">
      <path
         id="path4540-3"
         d="m 5.77,0 -8.65,5 0,-10 8.65,5 z"
         style="fill:#a7a7a7;fill-opacity:1;fill-rule:evenodd;stroke:#a7a7a7;stroke-width:1pt;stroke-opacity:1"
         transform="scale(0.4,0.4)" />
    </marker>
    <marker
       orient="auto"
       refY="0"
       refX="0"
       id="marker4542-3"
       style="overflow:visible">
      <path
         id="path4544-6"
         d="m 5.77,0 -8.65,5 0,-10 8.65,5 z"
         style="fill:#a7a7a7;fill-opacity:1;fill-rule:evenodd;stroke:#a7a7a7;stroke-width:1pt;stroke-opacity:1"
         transform="scale(0.4,0.4)" />
    </marker>
  </defs>
  <metadata
     id="metadata5012">
    <rdf:RDF>
      <cc:Work
         rdf:about="">
        <dc:format>image/svg+xml</dc:format>
        <dc:type
           rdf:resource="http://purl.org/dc/dcmitype/StillImage" />
        <dc:title></dc:title>
      </cc:Work>
    </rdf:RDF>
  </metadata>
  <g
     transform="translate(-15.424705,-72.161839)"
     id="layer1">
    <circle
       r="4.821465"
       cy="104.45045"
       cx="98.807114"
       id="path4158-83-2"
       style="fill:#d35f5f;fill-opacity:0.94117647;stroke:none;stroke-width:3.31999993;stroke-linecap:round;stroke-miterlimit:4;stroke-dasharray:none;stroke-dashoffset:0;stroke-opacity:0.85490196" />
    <path
       id="path9386"
       d="m 56.235939,101.41922 29.310344,2.15518"
       style="fill:#a7a7a7;fill-opacity:1;stroke:#a7a7a7;stroke-width:2.4000001;stroke-linecap:round;stroke-miterlimit:4;stroke-dasharray:none;stroke-dashoffset:0;stroke-opacity:1;marker-end:url(#marker9388)" />
    <circle
       r="4.8214645"
       cy="100.10333"
       cx="47.90279"
       id="path4158-83-2-2"
       style="fill:#a7a7a7;fill-opacity:1;stroke:none;stroke-width:3.31999993;stroke-linecap:round;stroke-miterlimit:4;stroke-dasharray:none;stroke-dashoffset:0;stroke-opacity:0.85490196" />
    <circle
       r="4.8214645"
       cy="103.47412"
       cx="156.517"
       id="path4158-83-2-7"
       style="fill:#a7a7a7;fill-opacity:1;stroke:none;stroke-width:3.31999993;stroke-linecap:round;stroke-miterlimit:4;stroke-dasharray:none;stroke-dashoffset:0;stroke-opacity:0.85490196" />
    <path
       id="path4549"
       d="m 37.696927,73.377449 6.367041,14.23221"
       style="fill:#a7a7a7;fill-opacity:1;stroke:#a7a7a7;stroke-width:2.4000001;stroke-linecap:round;stroke-miterlimit:4;stroke-dasharray:none;stroke-dashoffset:0;stroke-opacity:1;marker-end:url(#marker4811)" />
    <path
       id="path4852"
       d="m 106.90186,104.43551 35.58052,-1.12359"
       style="fill:#a7a7a7;fill-opacity:1;stroke:#a7a7a7;stroke-width:2.4000001;stroke-linecap:round;stroke-miterlimit:4;stroke-dasharray:none;stroke-dashoffset:0;stroke-opacity:1;marker-end:url(#marker4854)" />
    <path
       id="path4858"
       d="m 16.639689,85.708924 18.35206,10.112359"
       style="fill:#a7a7a7;fill-opacity:1;stroke:#a7a7a7;stroke-width:2.4000001;stroke-linecap:round;stroke-miterlimit:4;stroke-dasharray:none;stroke-dashoffset:0;stroke-opacity:1;marker-end:url(#marker4860)" />
    <path
       id="path4864"
       d="m 17.388753,112.30068 16.853932,-6.74157"
       style="fill:#a7a7a7;fill-opacity:1;stroke:#a7a7a7;stroke-width:2.4000001;stroke-linecap:round;stroke-miterlimit:4;stroke-dasharray:none;stroke-dashoffset:0;stroke-opacity:1;marker-end:url(#marker4866)" />
    <path
       id="path4870"
       d="m 33.119089,132.5254 10.11236,-20.59925"
       style="fill:#a7a7a7;fill-opacity:1;stroke:#a7a7a7;stroke-width:2.4000001;stroke-linecap:round;stroke-miterlimit:4;stroke-dasharray:none;stroke-dashoffset:0;stroke-opacity:1;marker-end:url(#marker4872)" />
    <path
       id="path4290"
       d="m 164.48837,103.77821 17.97753,0"
       style="fill:#a7a7a7;fill-opacity:1;stroke:#a7a7a7;stroke-width:2.4000001;stroke-linecap:round;stroke-miterlimit:4;stroke-dasharray:none;stroke-dashoffset:0;stroke-opacity:1;marker-end:url(#marker4552)" />
  </g>
</svg>
