<?xml version="1.0" encoding="UTF-8" standalone="no"?>
<svg
   xmlns:dc="http://purl.org/dc/elements/1.1/"
   xmlns:cc="http://creativecommons.org/ns#"
   xmlns:rdf="http://www.w3.org/1999/02/22-rdf-syntax-ns#"
   xmlns:svg="http://www.w3.org/2000/svg"
   xmlns="http://www.w3.org/2000/svg"
   version="1.1"
   id="svg5007"
   viewBox="0 0 80.746521 67.518883"
   height="19.05533mm"
   width="22.788464mm">
  <defs
     id="defs5009">
    <marker
       style="overflow:visible"
       id="marker9338"
       refX="0"
       refY="0"
       orient="auto">
      <path
         transform="scale(0.4,0.4)"
         style="fill:#a7a7a7;fill-opacity:1;fill-rule:evenodd;stroke:#a7a7a7;stroke-width:1pt;stroke-opacity:1"
         d="m 5.77,0 -8.65,5 0,-10 8.65,5 z"
         id="path9340" />
    </marker>
    <marker
       style="overflow:visible"
       id="marker9332"
       refX="0"
       refY="0"
       orient="auto">
      <path
         transform="scale(0.4,0.4)"
         style="fill:#a7a7a7;fill-opacity:1;fill-rule:evenodd;stroke:#a7a7a7;stroke-width:1pt;stroke-opacity:1"
         d="m 5.77,0 -8.65,5 0,-10 8.65,5 z"
         id="path9334" />
    </marker>
    <marker
       style="overflow:visible"
       id="marker9326"
       refX="0"
       refY="0"
       orient="auto">
      <path
         transform="scale(0.4,0.4)"
         style="fill:#a7a7a7;fill-opacity:1;fill-rule:evenodd;stroke:#a7a7a7;stroke-width:1pt;stroke-opacity:1"
         d="m 5.77,0 -8.65,5 0,-10 8.65,5 z"
         id="path9328" />
    </marker>
    <marker
       style="overflow:visible"
       id="marker9069"
       refX="0"
       refY="0"
       orient="auto">
      <path
         transform="scale(0.4,0.4)"
         style="fill:#a7a7a7;fill-opacity:1;fill-rule:evenodd;stroke:#a7a7a7;stroke-width:1pt;stroke-opacity:1"
         d="m 5.77,0 -8.65,5 0,-10 8.65,5 z"
         id="path9071" />
    </marker>
    <marker
       style="overflow:visible"
       id="marker9063"
       refX="0"
       refY="0"
       orient="auto">
      <path
         transform="scale(0.4,0.4)"
         style="fill:#a7a7a7;fill-opacity:1;fill-rule:evenodd;stroke:#a7a7a7;stroke-width:1pt;stroke-opacity:1"
         d="m 5.77,0 -8.65,5 0,-10 8.65,5 z"
         id="path9065" />
    </marker>
    <marker
       style="overflow:visible"
       id="marker9046"
       refX="0"
       refY="0"
       orient="auto">
      <path
         transform="scale(0.4,0.4)"
         style="fill:#a7a7a7;fill-opacity:1;fill-rule:evenodd;stroke:#a7a7a7;stroke-width:1pt;stroke-opacity:1"
         d="m 5.77,0 -8.65,5 0,-10 8.65,5 z"
         id="path9048" />
    </marker>
    <marker
       style="overflow:visible"
       id="marker9040"
       refX="0"
       refY="0"
       orient="auto">
      <path
         transform="scale(0.4,0.4)"
         style="fill:#a7a7a7;fill-opacity:1;fill-rule:evenodd;stroke:#a7a7a7;stroke-width:1pt;stroke-opacity:1"
         d="m 5.77,0 -8.65,5 0,-10 8.65,5 z"
         id="path9042" />
    </marker>
    <marker
       style="overflow:visible"
       id="marker9034"
       refX="0"
       refY="0"
       orient="auto">
      <path
         transform="scale(0.4,0.4)"
         style="fill:#a7a7a7;fill-opacity:1;fill-rule:evenodd;stroke:#a7a7a7;stroke-width:1pt;stroke-opacity:1"
         d="m 5.77,0 -8.65,5 0,-10 8.65,5 z"
         id="path9036" />
    </marker>
    <marker
       style="overflow:visible"
       id="marker9028"
       refX="0"
       refY="0"
       orient="auto">
      <path
         transform="scale(0.4,0.4)"
         style="fill:#a7a7a7;fill-opacity:1;fill-rule:evenodd;stroke:#a7a7a7;stroke-width:1pt;stroke-opacity:1"
         d="m 5.77,0 -8.65,5 0,-10 8.65,5 z"
         id="path9030" />
    </marker>
    <marker
       orient="auto"
       refY="0"
       refX="0"
       id="marker9020"
       style="overflow:visible">
      <path
         id="path9022"
         d="m 5.77,0 -8.65,5 0,-10 8.65,5 z"
         style="fill:#a7a7a7;fill-opacity:1;fill-rule:evenodd;stroke:#a7a7a7;stroke-width:1pt;stroke-opacity:1"
         transform="scale(0.4,0.4)" />
    </marker>
    <marker
       orient="auto"
       refY="0"
       refX="0"
       id="marker9016"
       style="overflow:visible">
      <path
         id="path9018"
         d="m 5.77,0 -8.65,5 0,-10 8.65,5 z"
         style="fill:#a7a7a7;fill-opacity:1;fill-rule:evenodd;stroke:#a7a7a7;stroke-width:1pt;stroke-opacity:1"
         transform="scale(0.4,0.4)" />
    </marker>
    <marker
       style="overflow:visible"
       id="marker9012"
       refX="0"
       refY="0"
       orient="auto">
      <path
         transform="scale(0.4,0.4)"
         style="fill:#a7a7a7;fill-opacity:1;fill-rule:evenodd;stroke:#a7a7a7;stroke-width:1pt;stroke-opacity:1"
         d="m 5.77,0 -8.65,5 0,-10 8.65,5 z"
         id="path9014" />
    </marker>
    <marker
       style="overflow:visible"
       id="marker8998"
       refX="0"
       refY="0"
       orient="auto">
      <path
         transform="scale(0.4,0.4)"
         style="fill:#a7a7a7;fill-opacity:1;fill-rule:evenodd;stroke:#a7a7a7;stroke-width:1pt;stroke-opacity:1"
         d="m 5.77,0 -8.65,5 0,-10 8.65,5 z"
         id="path9000" />
    </marker>
    <marker
       style="overflow:visible"
       id="marker8879"
       refX="0"
       refY="0"
       orient="auto">
      <path
         transform="scale(0.4,0.4)"
         style="fill:#a7a7a7;fill-opacity:1;fill-rule:evenodd;stroke:#a7a7a7;stroke-width:1pt;stroke-opacity:1"
         d="m 5.77,0 -8.65,5 0,-10 8.65,5 z"
         id="path8881" />
    </marker>
    <marker
       orient="auto"
       refY="0"
       refX="0"
       id="marker4550"
       style="overflow:visible">
      <path
         id="path4552"
         d="m 5.77,0 -8.65,5 0,-10 8.65,5 z"
         style="fill:#a7a7a7;fill-opacity:1;fill-rule:evenodd;stroke:#a7a7a7;stroke-width:1pt;stroke-opacity:1"
         transform="scale(0.4,0.4)" />
    </marker>
    <marker
       orient="auto"
       refY="0"
       refX="0"
       id="marker4546"
       style="overflow:visible">
      <path
         id="path4548"
         d="m 5.77,0 -8.65,5 0,-10 8.65,5 z"
         style="fill:#d35f5f;fill-opacity:0.94117647;fill-rule:evenodd;stroke:none;stroke-width:1pt;stroke-opacity:0.85490196"
         transform="scale(0.4,0.4)" />
    </marker>
    <marker
       orient="auto"
       refY="0"
       refX="0"
       id="marker4542"
       style="overflow:visible">
      <path
         id="path4544"
         d="m 5.77,0 -8.65,5 0,-10 8.65,5 z"
         style="fill:#a7a7a7;fill-opacity:1;fill-rule:evenodd;stroke:#a7a7a7;stroke-width:1pt;stroke-opacity:1"
         transform="scale(0.4,0.4)" />
    </marker>
    <marker
       orient="auto"
       refY="0"
       refX="0"
       id="marker4538"
       style="overflow:visible">
      <path
         id="path4540"
         d="m 5.77,0 -8.65,5 0,-10 8.65,5 z"
         style="fill:#a7a7a7;fill-opacity:1;fill-rule:evenodd;stroke:#a7a7a7;stroke-width:1pt;stroke-opacity:1"
         transform="scale(0.4,0.4)" />
    </marker>
    <marker
       orient="auto"
       refY="0"
       refX="0"
       id="marker4534"
       style="overflow:visible">
      <path
         id="path4536"
         d="m 5.77,0 -8.65,5 0,-10 8.65,5 z"
         style="fill:#a7a7a7;fill-opacity:1;fill-rule:evenodd;stroke:#a7a7a7;stroke-width:1pt;stroke-opacity:1"
         transform="scale(0.4,0.4)" />
    </marker>
    <marker
       orient="auto"
       refY="0"
       refX="0"
       id="marker4530"
       style="overflow:visible">
      <path
         id="path4532"
         d="m 5.77,0 -8.65,5 0,-10 8.65,5 z"
         style="fill:#a7a7a7;fill-opacity:1;fill-rule:evenodd;stroke:#a7a7a7;stroke-width:1pt;stroke-opacity:1"
         transform="scale(0.4,0.4)" />
    </marker>
    <marker
       orient="auto"
       refY="0"
       refX="0"
       id="marker4526"
       style="overflow:visible">
      <path
         id="path4528"
         d="m 5.77,0 -8.65,5 0,-10 8.65,5 z"
         style="fill:#a7a7a7;fill-opacity:1;fill-rule:evenodd;stroke:#a7a7a7;stroke-width:1pt;stroke-opacity:1"
         transform="scale(0.4,0.4)" />
    </marker>
    <marker
       orient="auto"
       refY="0"
       refX="0"
       id="marker4522"
       style="overflow:visible">
      <path
         id="path4524"
         d="m 5.77,0 -8.65,5 0,-10 8.65,5 z"
         style="fill:#a7a7a7;fill-opacity:1;fill-rule:evenodd;stroke:#a7a7a7;stroke-width:1pt;stroke-opacity:1"
         transform="scale(0.4,0.4)" />
    </marker>
    <marker
       orient="auto"
       refY="0"
       refX="0"
       id="marker4518"
       style="overflow:visible">
      <path
         id="path4520"
         d="m 5.77,0 -8.65,5 0,-10 8.65,5 z"
         style="fill:#a7a7a7;fill-opacity:1;fill-rule:evenodd;stroke:#a7a7a7;stroke-width:1pt;stroke-opacity:1"
         transform="scale(0.4,0.4)" />
    </marker>
    <marker
       orient="auto"
       refY="0"
       refX="0"
       id="marker4514"
       style="overflow:visible">
      <path
         id="path4516"
         d="m 5.77,0 -8.65,5 0,-10 8.65,5 z"
         style="fill:#a7a7a7;fill-opacity:1;fill-rule:evenodd;stroke:#a7a7a7;stroke-width:1pt;stroke-opacity:1"
         transform="scale(0.4,0.4)" />
    </marker>
    <marker
       orient="auto"
       refY="0"
       refX="0"
       id="marker4510"
       style="overflow:visible">
      <path
         id="path4512"
         d="m 5.77,0 -8.65,5 0,-10 8.65,5 z"
         style="fill:#a7a7a7;fill-opacity:1;fill-rule:evenodd;stroke:#a7a7a7;stroke-width:1pt;stroke-opacity:1"
         transform="scale(0.4,0.4)" />
    </marker>
    <marker
       orient="auto"
       refY="0"
       refX="0"
       id="marker4506"
       style="overflow:visible">
      <path
         id="path4508"
         d="m 5.77,0 -8.65,5 0,-10 8.65,5 z"
         style="fill:#a7a7a7;fill-opacity:1;fill-rule:evenodd;stroke:#a7a7a7;stroke-width:1pt;stroke-opacity:1"
         transform="scale(0.4,0.4)" />
    </marker>
    <marker
       orient="auto"
       refY="0"
       refX="0"
       id="marker4502"
       style="overflow:visible">
      <path
         id="path4504"
         d="m 5.77,0 -8.65,5 0,-10 8.65,5 z"
         style="fill:#a7a7a7;fill-opacity:1;fill-rule:evenodd;stroke:#a7a7a7;stroke-width:1pt;stroke-opacity:1"
         transform="scale(0.4,0.4)" />
    </marker>
    <marker
       orient="auto"
       refY="0"
       refX="0"
       id="marker4498"
       style="overflow:visible">
      <path
         id="path4500"
         d="m 5.77,0 -8.65,5 0,-10 8.65,5 z"
         style="fill:#a7a7a7;fill-opacity:1;fill-rule:evenodd;stroke:#a7a7a7;stroke-width:1pt;stroke-opacity:1"
         transform="scale(0.4,0.4)" />
    </marker>
    <marker
       orient="auto"
       refY="0"
       refX="0"
       id="marker4494"
       style="overflow:visible">
      <path
         id="path4496"
         d="m 5.77,0 -8.65,5 0,-10 8.65,5 z"
         style="fill:#a7a7a7;fill-opacity:1;fill-rule:evenodd;stroke:#a7a7a7;stroke-width:1pt;stroke-opacity:1"
         transform="scale(0.4,0.4)" />
    </marker>
    <marker
       orient="auto"
       refY="0"
       refX="0"
       id="marker4490"
       style="overflow:visible">
      <path
         id="path4492"
         d="m 5.77,0 -8.65,5 0,-10 8.65,5 z"
         style="fill:#a7a7a7;fill-opacity:1;fill-rule:evenodd;stroke:#a7a7a7;stroke-width:1pt;stroke-opacity:1"
         transform="scale(0.4,0.4)" />
    </marker>
    <marker
       style="overflow:visible"
       id="marker4482"
       refX="0"
       refY="0"
       orient="auto">
      <path
         transform="scale(0.4,0.4)"
         style="fill:#a7a7a7;fill-opacity:1;fill-rule:evenodd;stroke:#a7a7a7;stroke-width:1pt;stroke-opacity:1"
         d="m 5.77,0 -8.65,5 0,-10 8.65,5 z"
         id="path4484" />
    </marker>
    <marker
       style="overflow:visible"
       id="marker4458"
       refX="0"
       refY="0"
       orient="auto">
      <path
         transform="scale(0.4,0.4)"
         style="fill:#a7a7a7;fill-opacity:1;fill-rule:evenodd;stroke:#a7a7a7;stroke-width:1pt;stroke-opacity:1"
         d="m 5.77,0 -8.65,5 0,-10 8.65,5 z"
         id="path4460" />
    </marker>
    <marker
       style="overflow:visible"
       id="marker4453"
       refX="0"
       refY="0"
       orient="auto">
      <path
         transform="scale(0.4,0.4)"
         style="fill:#a7a7a7;fill-opacity:1;fill-rule:evenodd;stroke:#a7a7a7;stroke-width:1pt;stroke-opacity:1"
         d="m 5.77,0 -8.65,5 0,-10 8.65,5 z"
         id="path4342" />
    </marker>
    <marker
       style="overflow:visible"
       id="marker21270"
       refX="0"
       refY="0"
       orient="auto">
      <path
         transform="scale(0.4,0.4)"
         style="fill:#a7a7a7;fill-opacity:1;fill-rule:evenodd;stroke:#a7a7a7;stroke-width:1pt;stroke-opacity:1"
         d="m 5.77,0 -8.65,5 0,-10 8.65,5 z"
         id="path21159" />
    </marker>
    <marker
       orient="auto"
       refY="0"
       refX="0"
       id="marker7525"
       style="overflow:visible">
      <path
         id="path7527"
         d="m 5.77,0 -8.65,5 0,-10 8.65,5 z"
         style="fill:#a7a7a7;fill-opacity:1;fill-rule:evenodd;stroke:#a7a7a7;stroke-width:1pt;stroke-opacity:1"
         transform="scale(0.4,0.4)" />
    </marker>
    <marker
       orient="auto"
       refY="0"
       refX="0"
       id="marker7395"
       style="overflow:visible">
      <path
         id="path7397"
         d="m 5.77,0 -8.65,5 0,-10 8.65,5 z"
         style="fill:#999999;fill-opacity:0.94117647;fill-rule:evenodd;stroke:none;stroke-width:1pt;stroke-opacity:0.85490196"
         transform="scale(0.4,0.4)" />
    </marker>
    <marker
       orient="auto"
       refY="0"
       refX="0"
       id="marker7271"
       style="overflow:visible">
      <path
         id="path7273"
         d="m 5.77,0 -8.65,5 0,-10 8.65,5 z"
         style="fill:#a7a7a7;fill-opacity:1;fill-rule:evenodd;stroke:#a7a7a7;stroke-width:1pt;stroke-opacity:1"
         transform="scale(0.4,0.4)" />
    </marker>
    <marker
       orient="auto"
       refY="0"
       refX="0"
       id="marker7153"
       style="overflow:visible">
      <path
         id="path7155"
         d="m 5.77,0 -8.65,5 0,-10 8.65,5 z"
         style="fill:#a7a7a7;fill-opacity:1;fill-rule:evenodd;stroke:#a7a7a7;stroke-width:1pt;stroke-opacity:1"
         transform="scale(0.4,0.4)" />
    </marker>
    <marker
       orient="auto"
       refY="0"
       refX="0"
       id="marker7041"
       style="overflow:visible">
      <path
         id="path7043"
         d="m 5.77,0 -8.65,5 0,-10 8.65,5 z"
         style="fill:#a7a7a7;fill-opacity:1;fill-rule:evenodd;stroke:#a7a7a7;stroke-width:1pt;stroke-opacity:1"
         transform="scale(0.4,0.4)" />
    </marker>
    <marker
       orient="auto"
       refY="0"
       refX="0"
       id="marker6935"
       style="overflow:visible">
      <path
         id="path6937"
         d="m 5.77,0 -8.65,5 0,-10 8.65,5 z"
         style="fill:#a7a7a7;fill-opacity:1;fill-rule:evenodd;stroke:#a7a7a7;stroke-width:1pt;stroke-opacity:1"
         transform="scale(0.4,0.4)" />
    </marker>
    <marker
       orient="auto"
       refY="0"
       refX="0"
       id="marker6835"
       style="overflow:visible">
      <path
         id="path6837"
         d="m 5.77,0 -8.65,5 0,-10 8.65,5 z"
         style="fill:#a7a7a7;fill-opacity:1;fill-rule:evenodd;stroke:#a7a7a7;stroke-width:1pt;stroke-opacity:1"
         transform="scale(0.4,0.4)" />
    </marker>
    <marker
       orient="auto"
       refY="0"
       refX="0"
       id="marker6741"
       style="overflow:visible">
      <path
         id="path6743"
         d="m 5.77,0 -8.65,5 0,-10 8.65,5 z"
         style="fill:#a7a7a7;fill-opacity:1;fill-rule:evenodd;stroke:#a7a7a7;stroke-width:1pt;stroke-opacity:1"
         transform="scale(0.4,0.4)" />
    </marker>
    <marker
       orient="auto"
       refY="0"
       refX="0"
       id="marker6653"
       style="overflow:visible">
      <path
         id="path6655"
         d="m 5.77,0 -8.65,5 0,-10 8.65,5 z"
         style="fill:#a7a7a7;fill-opacity:1;fill-rule:evenodd;stroke:#a7a7a7;stroke-width:1pt;stroke-opacity:1"
         transform="scale(0.4,0.4)" />
    </marker>
    <marker
       orient="auto"
       refY="0"
       refX="0"
       id="marker6571"
       style="overflow:visible">
      <path
         id="path6573"
         d="m 5.77,0 -8.65,5 0,-10 8.65,5 z"
         style="fill:#a7a7a7;fill-opacity:1;fill-rule:evenodd;stroke:#a7a7a7;stroke-width:1pt;stroke-opacity:1"
         transform="scale(0.4,0.4)" />
    </marker>
    <marker
       orient="auto"
       refY="0"
       refX="0"
       id="marker6495"
       style="overflow:visible">
      <path
         id="path6497"
         d="m 5.77,0 -8.65,5 0,-10 8.65,5 z"
         style="fill:#a7a7a7;fill-opacity:1;fill-rule:evenodd;stroke:#a7a7a7;stroke-width:1pt;stroke-opacity:1"
         transform="scale(0.4,0.4)" />
    </marker>
    <marker
       orient="auto"
       refY="0"
       refX="0"
       id="marker6425"
       style="overflow:visible">
      <path
         id="path6427"
         d="m 5.77,0 -8.65,5 0,-10 8.65,5 z"
         style="fill:#a7a7a7;fill-opacity:1;fill-rule:evenodd;stroke:#a7a7a7;stroke-width:1pt;stroke-opacity:1"
         transform="scale(0.4,0.4)" />
    </marker>
    <marker
       orient="auto"
       refY="0"
       refX="0"
       id="marker6361"
       style="overflow:visible">
      <path
         id="path6363"
         d="m 5.77,0 -8.65,5 0,-10 8.65,5 z"
         style="fill:#a7a7a7;fill-opacity:1;fill-rule:evenodd;stroke:#a7a7a7;stroke-width:1pt;stroke-opacity:1"
         transform="scale(0.4,0.4)" />
    </marker>
    <marker
       orient="auto"
       refY="0"
       refX="0"
       id="marker6303"
       style="overflow:visible">
      <path
         id="path6305"
         d="m 5.77,0 -8.65,5 0,-10 8.65,5 z"
         style="fill:#a7a7a7;fill-opacity:1;fill-rule:evenodd;stroke:#a7a7a7;stroke-width:1pt;stroke-opacity:1"
         transform="scale(0.4,0.4)" />
    </marker>
    <marker
       orient="auto"
       refY="0"
       refX="0"
       id="marker6251"
       style="overflow:visible">
      <path
         id="path6253"
         d="m 5.77,0 -8.65,5 0,-10 8.65,5 z"
         style="fill:#a7a7a7;fill-opacity:1;fill-rule:evenodd;stroke:#a7a7a7;stroke-width:1pt;stroke-opacity:1"
         transform="scale(0.4,0.4)" />
    </marker>
    <marker
       orient="auto"
       refY="0"
       refX="0"
       id="marker6205"
       style="overflow:visible">
      <path
         id="path6207"
         d="m 5.77,0 -8.65,5 0,-10 8.65,5 z"
         style="fill:#a7a7a7;fill-opacity:1;fill-rule:evenodd;stroke:#a7a7a7;stroke-width:1pt;stroke-opacity:1"
         transform="scale(0.4,0.4)" />
    </marker>
    <marker
       style="overflow:visible"
       id="marker5252"
       refX="0"
       refY="0"
       orient="auto">
      <path
         transform="scale(0.4,0.4)"
         style="fill:#a7a7a7;fill-opacity:1;fill-rule:evenodd;stroke:#a7a7a7;stroke-width:1pt;stroke-opacity:1"
         d="m 5.77,0 -8.65,5 0,-10 8.65,5 z"
         id="path5254" />
    </marker>
    <marker
       style="overflow:visible"
       id="marker5076"
       refX="0"
       refY="0"
       orient="auto">
      <path
         transform="scale(0.4,0.4)"
         style="fill:#a7a7a7;fill-opacity:1;fill-rule:evenodd;stroke:#a7a7a7;stroke-width:1pt;stroke-opacity:1"
         d="m 5.77,0 -8.65,5 0,-10 8.65,5 z"
         id="path5078" />
    </marker>
    <marker
       style="overflow:visible"
       id="marker5022"
       refX="0"
       refY="0"
       orient="auto">
      <path
         transform="scale(0.4,0.4)"
         style="fill:#a7a7a7;fill-opacity:1;fill-rule:evenodd;stroke:#a7a7a7;stroke-width:1pt;stroke-opacity:1"
         d="m 5.77,0 -8.65,5 0,-10 8.65,5 z"
         id="path5024" />
    </marker>
    <marker
       style="overflow:visible"
       id="TriangleOutM"
       refX="0"
       refY="0"
       orient="auto">
      <path
         transform="scale(0.4,0.4)"
         style="fill:#a7a7a7;fill-opacity:1;fill-rule:evenodd;stroke:#a7a7a7;stroke-width:1pt;stroke-opacity:1"
         d="m 5.77,0 -8.65,5 0,-10 8.65,5 z"
         id="path4315" />
    </marker>
    <marker
       style="overflow:visible"
       id="marker8879-0"
       refX="0"
       refY="0"
       orient="auto">
      <path
         transform="scale(0.4,0.4)"
         style="fill:#a7a7a7;fill-opacity:1;fill-rule:evenodd;stroke:#a7a7a7;stroke-width:1pt;stroke-opacity:1"
         d="m 5.77,0 -8.65,5 0,-10 8.65,5 z"
         id="path8881-1" />
    </marker>
    <marker
       orient="auto"
       refY="0"
       refX="0"
       id="marker4534-6"
       style="overflow:visible">
      <path
         id="path4536-7"
         d="m 5.77,0 -8.65,5 0,-10 8.65,5 z"
         style="fill:#a7a7a7;fill-opacity:1;fill-rule:evenodd;stroke:#a7a7a7;stroke-width:1pt;stroke-opacity:1"
         transform="scale(0.4,0.4)" />
    </marker>
    <marker
       orient="auto"
       refY="0"
       refX="0"
       id="marker4538-7"
       style="overflow:visible">
      <path
         id="path4540-3"
         d="m 5.77,0 -8.65,5 0,-10 8.65,5 z"
         style="fill:#a7a7a7;fill-opacity:1;fill-rule:evenodd;stroke:#a7a7a7;stroke-width:1pt;stroke-opacity:1"
         transform="scale(0.4,0.4)" />
    </marker>
    <marker
       orient="auto"
       refY="0"
       refX="0"
       id="marker4542-3"
       style="overflow:visible">
      <path
         id="path4544-6"
         d="m 5.77,0 -8.65,5 0,-10 8.65,5 z"
         style="fill:#a7a7a7;fill-opacity:1;fill-rule:evenodd;stroke:#a7a7a7;stroke-width:1pt;stroke-opacity:1"
         transform="scale(0.4,0.4)" />
    </marker>
  </defs>
  <metadata
     id="metadata5012">
    <rdf:RDF>
      <cc:Work
         rdf:about="">
        <dc:format>image/svg+xml</dc:format>
        <dc:type
           rdf:resource="http://purl.org/dc/dcmitype/StillImage" />
        <dc:title></dc:title>
      </cc:Work>
    </rdf:RDF>
  </metadata>
  <g
     transform="translate(-70.891111,-73.124475)"
     id="layer1">
    <circle
       r="4.821465"
       cy="104.82499"
       cx="109.66853"
       id="path4158-83-2"
       style="fill:#d35f5f;fill-opacity:0.94117647;stroke:none;stroke-width:3.31999993;stroke-linecap:round;stroke-miterlimit:4;stroke-dasharray:none;stroke-dashoffset:0;stroke-opacity:0.85490196" />
    <path
       id="path8996"
       d="m 72.106816,119.84822 25,-10.77586"
       style="fill:#a7a7a7;fill-opacity:1;stroke:#a7a7a7;stroke-width:2.4000001;stroke-linecap:round;stroke-miterlimit:4;stroke-dasharray:none;stroke-dashoffset:0;stroke-opacity:1;marker-end:url(#marker8998)" />
    <path
       id="path9061"
       d="m 116.74919,109.07234 25.43104,8.18966"
       style="fill:#a7a7a7;fill-opacity:1;stroke:#a7a7a7;stroke-width:2.4000001;stroke-linecap:round;stroke-miterlimit:4;stroke-dasharray:none;stroke-dashoffset:0;stroke-opacity:1;marker-end:url(#marker9063)" />
    <path
       id="path9067"
       d="m 117.18023,101.74476 28.01724,-8.620686"
       style="fill:#a7a7a7;fill-opacity:1;stroke:#a7a7a7;stroke-width:2.4000001;stroke-linecap:round;stroke-miterlimit:4;stroke-dasharray:none;stroke-dashoffset:0;stroke-opacity:1;marker-end:url(#marker9069)" />
    <path
       id="path9324"
       d="m 72.892106,89.426982 25.43104,9.051722"
       style="fill:#a7a7a7;fill-opacity:1;stroke:#a7a7a7;stroke-width:2.4000001;stroke-linecap:round;stroke-miterlimit:4;stroke-dasharray:none;stroke-dashoffset:0;stroke-opacity:1;marker-end:url(#marker9326)" />
    <path
       id="path9330"
       d="m 100.47833,139.42698 6.46551,-21.55172"
       style="fill:#a7a7a7;fill-opacity:1;stroke:#a7a7a7;stroke-width:2.4000001;stroke-linecap:round;stroke-miterlimit:4;stroke-dasharray:none;stroke-dashoffset:0;stroke-opacity:1;marker-end:url(#marker9332)" />
    <path
       id="path9336"
       d="m 102.20247,74.340774 5.17241,16.379311"
       style="fill:#a7a7a7;fill-opacity:1;stroke:#a7a7a7;stroke-width:2.4000001;stroke-linecap:round;stroke-miterlimit:4;stroke-dasharray:none;stroke-dashoffset:0;stroke-opacity:1;marker-end:url(#marker9338)" />
  </g>
</svg>
